# xmcd
#
# Track frame offsets:
#	182
#	20447
#	32955
#	55675
#	72947
#	93212
#	118375
#	139912
#	154082
#	170900
#	194177
#	212812
#	225950
#
# Disc length: 3290 seconds
#
# Revision: 1
# Processed by: cddbd v1.5.1PL0 Copyright (c) Steve Scherf et al.
# Submitted via: audiograbber 1.83.01
#
DISCID=be0cd80d
DTITLE=Varios - Blues Festival 1968 chicago All Stars
DYEAR=1900
DGENRE=Blues
TTITLE0=Crawling King Snake
TTITLE1=Dimples
TTITLE2=It Serves Me Right To Supper
TTITLE3=Maudie
TTITLE4=Boom Boom
TTITLE5=I Never Get Out Of The Blues Alive
TTITLE6=Chicago Boogie Style
TTITLE7=Got  A Think Going On
TTITLE8=29 Ways
TTITLE9=Wee Wee Hours
TTITLE10=I Believe
TTITLE11=Fat Mama
TTITLE12=Re Boogie
EXTD=
EXTT0=
EXTT1=
EXTT2=
EXTT3=
EXTT4=
EXTT5=
EXTT6=
EXTT7=
EXTT8=
EXTT9=
EXTT10=
EXTT11=
EXTT12=
PLAYORDER=
